{
    "asset" : {
        "generator" : "Khronos glTF Blender I/O v3.3.27",
        "version" : "2.0"
    },
    "extensionsUsed" : [
        "KHR_materials_specular",
        "KHR_materials_ior"
    ],
    "scene" : 0,
    "scenes" : [
        {
            "name" : "Scene",
            "nodes" : [
                0
            ]
        }
    ],
    "nodes" : [
        {
            "mesh" : 0,
            "name" : "cqmmM3.tif",
            "rotation" : [
                0.7071068286895752,
                0,
                0,
                0.7071067094802856
            ]
        }
    ],
    "materials" : [
        {
            "doubleSided" : true,
            "extensions" : {
                "KHR_materials_specular" : {
                    "specularColorFactor" : [
                        0,
                        0,
                        0
                    ]
                },
                "KHR_materials_ior" : {
                    "ior" : 1.4500000476837158
                }
            },
            "name" : "material0",
            "pbrMetallicRoughness" : {
                "baseColorFactor" : [
                    0.7232953906059265,
                    0.7232953906059265,
                    0.7232953906059265,
                    1
                ],
                "metallicFactor" : 0
            }
        },
        {
            "doubleSided" : true,
            "name" : "material1",
            "pbrMetallicRoughness" : {
                "baseColorFactor" : [
                    0.800000011920929,
                    0.800000011920929,
                    0.800000011920929,
                    1
                ],
                "metallicFactor" : 0,
                "roughnessFactor" : 0.5
            }
        },
        {
            "doubleSided" : true,
            "name" : "material2",
            "pbrMetallicRoughness" : {
                "baseColorFactor" : [
                    0.800000011920929,
                    0.800000011920929,
                    0.800000011920929,
                    1
                ],
                "metallicFactor" : 0,
                "roughnessFactor" : 0.5
            }
        },
        {
            "doubleSided" : true,
            "name" : "material3",
            "pbrMetallicRoughness" : {
                "baseColorFactor" : [
                    0.800000011920929,
                    0.800000011920929,
                    0.800000011920929,
                    1
                ],
                "metallicFactor" : 0,
                "roughnessFactor" : 0.5
            }
        }
    ],
    "meshes" : [
        {
            "name" : "cqmmM3.tif",
            "primitives" : [
                {
                    "attributes" : {
                        "POSITION" : 0,
                        "NORMAL" : 1,
                        "TEXCOORD_0" : 2
                    },
                    "indices" : 3,
                    "material" : 0
                },
                {
                    "attributes" : {
                        "POSITION" : 4,
                        "NORMAL" : 5,
                        "TEXCOORD_0" : 6
                    },
                    "indices" : 7,
                    "material" : 1
                },
                {
                    "attributes" : {
                        "POSITION" : 8,
                        "NORMAL" : 9,
                        "TEXCOORD_0" : 10
                    },
                    "indices" : 11,
                    "material" : 2
                },
                {
                    "attributes" : {
                        "POSITION" : 12,
                        "NORMAL" : 13,
                        "TEXCOORD_0" : 14
                    },
                    "indices" : 15,
                    "material" : 3
                }
            ]
        }
    ],
    "accessors" : [
        {
            "bufferView" : 0,
            "componentType" : 5126,
            "count" : 8359,
            "max" : [
                6.995419979095459,
                0.5593019723892212,
                3.9790399074554443
            ],
            "min" : [
                5.838409900665283,
                -0.5593019723892212,
                2.8677899837493896
            ],
            "type" : "VEC3"
        },
        {
            "bufferView" : 1,
            "componentType" : 5126,
            "count" : 8359,
            "type" : "VEC3"
        },
        {
            "bufferView" : 2,
            "componentType" : 5126,
            "count" : 8359,
            "type" : "VEC2"
        },
        {
            "bufferView" : 3,
            "componentType" : 5123,
            "count" : 43938,
            "type" : "SCALAR"
        },
        {
            "bufferView" : 4,
            "componentType" : 5126,
            "count" : 11195,
            "max" : [
                -7.982260227203369,
                0.8521220088005066,
                2.900399923324585
            ],
            "min" : [
                -13.645299911499023,
                -0.8521220088005066,
                -4.327600002288818
            ],
            "type" : "VEC3"
        },
        {
            "bufferView" : 5,
            "componentType" : 5126,
            "count" : 11195,
            "type" : "VEC3"
        },
        {
            "bufferView" : 6,
            "componentType" : 5126,
            "count" : 11195,
            "type" : "VEC2"
        },
        {
            "bufferView" : 7,
            "componentType" : 5123,
            "count" : 54126,
            "type" : "SCALAR"
        },
        {
            "bufferView" : 8,
            "componentType" : 5126,
            "count" : 11538,
            "max" : [
                13.645299911499023,
                1.1004999876022339,
                4.052680015563965
            ],
            "min" : [
                7.343339920043945,
                -1.1004999876022339,
                -4.49521017074585
            ],
            "type" : "VEC3"
        },
        {
            "bufferView" : 9,
            "componentType" : 5126,
            "count" : 11538,
            "type" : "VEC3"
        },
        {
            "bufferView" : 10,
            "componentType" : 5126,
            "count" : 11538,
            "type" : "VEC2"
        },
        {
            "bufferView" : 11,
            "componentType" : 5123,
            "count" : 55332,
            "type" : "SCALAR"
        },
        {
            "bufferView" : 12,
            "componentType" : 5126,
            "count" : 15700,
            "max" : [
                8.690990447998047,
                1.433169960975647,
                5.956089973449707
            ],
            "min" : [
                -10.49489974975586,
                -1.433169960975647,
                -5.956089973449707
            ],
            "type" : "VEC3"
        },
        {
            "bufferView" : 13,
            "componentType" : 5126,
            "count" : 15700,
            "type" : "VEC3"
        },
        {
            "bufferView" : 14,
            "componentType" : 5126,
            "count" : 15700,
            "type" : "VEC2"
        },
        {
            "bufferView" : 15,
            "componentType" : 5123,
            "count" : 70224,
            "type" : "SCALAR"
        }
    ],
    "bufferViews" : [
        {
            "buffer" : 0,
            "byteLength" : 100308,
            "byteOffset" : 0,
            "target" : 34962
        },
        {
            "buffer" : 0,
            "byteLength" : 100308,
            "byteOffset" : 100308,
            "target" : 34962
        },
        {
            "buffer" : 0,
            "byteLength" : 66872,
            "byteOffset" : 200616,
            "target" : 34962
        },
        {
            "buffer" : 0,
            "byteLength" : 87876,
            "byteOffset" : 267488,
            "target" : 34963
        },
        {
            "buffer" : 0,
            "byteLength" : 134340,
            "byteOffset" : 355364,
            "target" : 34962
        },
        {
            "buffer" : 0,
            "byteLength" : 134340,
            "byteOffset" : 489704,
            "target" : 34962
        },
        {
            "buffer" : 0,
            "byteLength" : 89560,
            "byteOffset" : 624044,
            "target" : 34962
        },
        {
            "buffer" : 0,
            "byteLength" : 108252,
            "byteOffset" : 713604,
            "target" : 34963
        },
        {
            "buffer" : 0,
            "byteLength" : 138456,
            "byteOffset" : 821856,
            "target" : 34962
        },
        {
            "buffer" : 0,
            "byteLength" : 138456,
            "byteOffset" : 960312,
            "target" : 34962
        },
        {
            "buffer" : 0,
            "byteLength" : 92304,
            "byteOffset" : 1098768,
            "target" : 34962
        },
        {
            "buffer" : 0,
            "byteLength" : 110664,
            "byteOffset" : 1191072,
            "target" : 34963
        },
        {
            "buffer" : 0,
            "byteLength" : 188400,
            "byteOffset" : 1301736,
            "target" : 34962
        },
        {
            "buffer" : 0,
            "byteLength" : 188400,
            "byteOffset" : 1490136,
            "target" : 34962
        },
        {
            "buffer" : 0,
            "byteLength" : 125600,
            "byteOffset" : 1678536,
            "target" : 34962
        },
        {
            "buffer" : 0,
            "byteLength" : 140448,
            "byteOffset" : 1804136,
            "target" : 34963
        }
    ],
    "buffers" : [
        {
            "byteLength" : 1944584,
            "uri" : "data:application/octet-stream;base64,"
        }
    ]
}
